<?xml version="1.0" encoding="UTF-8" standalone="no"?>
<!DOCTYPE svg PUBLIC "-//W3C//DTD SVG 1.1//EN" "http://www.w3.org/Graphics/SVG/1.1/DTD/svg11.dtd">
<!-- Generated by graphviz version 2.40.1 (20161225.0304)
 -->
<!-- Title: G Pages: 1 -->
<svg width="247pt" height="260pt" viewBox="0.00 0.00 246.65 260.00" xmlns="http://www.w3.org/2000/svg" xmlns:xlink="http://www.w3.org/1999/xlink">
<g id="graph0" class="graph" transform="scale(1 1) rotate(0) translate(4 256)">
<title>G</title>

<!-- YBR -->
<g id="node1" class="node">
<title>YBR</title>
<ellipse fill="#15616d" stroke="#001524" cx="30.8883" cy="-18" rx="30.777" ry="18"/>
<text text-anchor="middle" x="30.8883" y="-13.8" font-family="Times,serif" font-size="14.00" fill="#001524">YBR</text>
</g>
<!-- Property -->
<g id="node2" class="node">
<title>Property</title>
<ellipse fill="#15616d" stroke="#001524" cx="102.8883" cy="-162" rx="44.0814" ry="18"/>
<text text-anchor="middle" x="102.8883" y="-157.8" font-family="Times,serif" font-size="14.00" fill="#001524">Property</text>
</g>
<!-- Tiers -->
<g id="node3" class="node">
<title>Tiers</title>
<ellipse fill="#ffecd1" stroke="#001524" cx="30.8883" cy="-90" rx="30.7539" ry="18"/>
<text text-anchor="middle" x="30.8883" y="-85.8" font-family="Times,serif" font-size="14.00" fill="#001524">Tiers</text>
</g>
<!-- Property&#45;&gt;Tiers -->
<g id="edge6" class="edge">
<title>Property-&gt;Tiers</title>
<path fill="none" stroke="#001524" d="M86.1891,-145.3008C76.5617,-135.6734 64.3197,-123.4314 53.8025,-112.9142"/>
<polygon fill="#001524" stroke="#001524" points="56.0572,-110.2191 46.5112,-105.6229 51.1074,-115.1689 56.0572,-110.2191"/>
</g>
<!-- Compliance -->
<g id="node4" class="node">
<title>Compliance</title>
<ellipse fill="#ffecd1" stroke="#001524" cx="137.8883" cy="-90" rx="57.9042" ry="18"/>
<text text-anchor="middle" x="137.8883" y="-85.8" font-family="Times,serif" font-size="14.00" fill="#001524">Compliance</text>
</g>
<!-- Property&#45;&gt;Compliance -->
<g id="edge5" class="edge">
<title>Property-&gt;Compliance</title>
<path fill="none" stroke="#001524" d="M111.54,-144.2022C115.5364,-135.981 120.3683,-126.041 124.7972,-116.9301"/>
<polygon fill="#001524" stroke="#001524" points="127.9906,-118.3664 129.2148,-107.8425 121.6951,-115.306 127.9906,-118.3664"/>
</g>
<!-- Tiers&#45;&gt;YBR -->
<g id="edge7" class="edge">
<title>Tiers-&gt;YBR</title>
<path fill="none" stroke="#001524" d="M30.8883,-71.8314C30.8883,-64.131 30.8883,-54.9743 30.8883,-46.4166"/>
<polygon fill="#001524" stroke="#001524" points="34.3884,-46.4132 30.8883,-36.4133 27.3884,-46.4133 34.3884,-46.4132"/>
</g>
<!-- kycSigner -->
<g id="node7" class="node">
<title>kycSigner</title>
<ellipse fill="#ff7d00" stroke="#001524" cx="137.8883" cy="-18" rx="50.3819" ry="18"/>
<text text-anchor="middle" x="137.8883" y="-13.8" font-family="Times,serif" font-size="14.00" fill="#001524">kycSigner</text>
</g>
<!-- Compliance&#45;&gt;kycSigner -->
<g id="edge1" class="edge">
<title>Compliance-&gt;kycSigner</title>
<path fill="none" stroke="#001524" d="M137.8883,-71.8314C137.8883,-64.131 137.8883,-54.9743 137.8883,-46.4166"/>
<polygon fill="#001524" stroke="#001524" points="141.3884,-46.4132 137.8883,-36.4133 134.3884,-46.4133 141.3884,-46.4132"/>
</g>
<!-- SaleManager -->
<g id="node5" class="node">
<title>SaleManager</title>
<ellipse fill="#ffecd1" stroke="#001524" cx="102.8883" cy="-234" rx="61.9557" ry="18"/>
<text text-anchor="middle" x="102.8883" y="-229.8" font-family="Times,serif" font-size="14.00" fill="#001524">SaleManager</text>
</g>
<!-- SaleManager&#45;&gt;Property -->
<g id="edge2" class="edge">
<title>SaleManager-&gt;Property</title>
<path fill="none" stroke="#001524" d="M102.8883,-215.8314C102.8883,-208.131 102.8883,-198.9743 102.8883,-190.4166"/>
<polygon fill="#001524" stroke="#001524" points="106.3884,-190.4132 102.8883,-180.4133 99.3884,-190.4133 106.3884,-190.4132"/>
</g>
<!-- SaleManager&#45;&gt;Tiers -->
<g id="edge4" class="edge">
<title>SaleManager-&gt;Tiers</title>
<path fill="none" stroke="#001524" d="M81.0174,-216.9499C70.0549,-207.2627 57.5216,-194.2405 49.8883,-180 39.6713,-160.9396 34.9469,-136.8599 32.7631,-118.4049"/>
<polygon fill="#001524" stroke="#001524" points="36.2272,-117.871 31.7485,-108.2693 29.262,-118.5683 36.2272,-117.871"/>
</g>
<!-- Oracle -->
<g id="node6" class="node">
<title>Oracle</title>
<ellipse fill="#ffecd1" stroke="#001524" cx="201.8883" cy="-162" rx="36.5344" ry="18"/>
<text text-anchor="middle" x="201.8883" y="-157.8" font-family="Times,serif" font-size="14.00" fill="#001524">Oracle</text>
</g>
<!-- SaleManager&#45;&gt;Oracle -->
<g id="edge3" class="edge">
<title>SaleManager-&gt;Oracle</title>
<path fill="none" stroke="#001524" d="M126.0994,-217.1192C140.0496,-206.9736 157.9242,-193.9739 172.8106,-183.1474"/>
<polygon fill="#001524" stroke="#001524" points="175.1492,-185.7744 181.178,-177.062 171.032,-180.1132 175.1492,-185.7744"/>
</g>
</g>
</svg>