<svg width="161" height="29" viewBox="0 0 161 29" fill="none" xmlns="http://www.w3.org/2000/svg">
<path fill-rule="evenodd" clip-rule="evenodd" d="M17.0764 12.1908L15.7557 12.962C15.7462 12.9673 15.7369 12.9728 15.7277 12.9783L15.6958 12.997V12.9988C15.456 13.1593 15.3145 13.4265 15.3145 13.7186V15.2801C15.3145 15.5723 15.456 15.8394 15.6958 16V16.0078L16.1624 16.2808L17.0857 16.8132L17.0905 16.8159C17.2251 16.8894 17.3779 16.9287 17.5314 16.9274C17.6849 16.9287 17.8377 16.8894 17.9723 16.8159L17.9772 16.8132L18.8978 16.2823L19.367 16.0078V16C19.6068 15.8394 19.7483 15.5723 19.7483 15.2801V13.7186C19.7483 13.4265 19.6068 13.1593 19.367 12.9988V12.997L19.3351 12.9783C19.3259 12.9728 19.3165 12.9673 19.3071 12.962L17.9864 12.1908C17.8492 12.1091 17.6908 12.0685 17.5314 12.0714C17.3719 12.0685 17.2136 12.1091 17.0764 12.1908Z" fill="white"/>
<path fill-rule="evenodd" clip-rule="evenodd" d="M29.4511 3.12947C28.1601 1.46494 26.1777 0.5 24.0511 0.5H19.2667H15.7662H10.9818C8.47462 0.5 6.26507 1.80465 5.02594 3.96668L0.948173 10.9502C-0.316058 13.0975 -0.316058 15.9018 0.948173 18.0496L5.44863 25.6918C6.73362 27.4661 8.78043 28.4999 10.9818 28.4999H15.7662H19.2667H24.0511C28.0241 28.4999 29.6864 25.8786 31.2985 22.881C33.3131 19.1342 36.7241 15.5479 34.1235 11.0174L31.2996 6.11993L29.4511 3.12947ZM11.5612 5.54215L13.8319 4.93382L15.9557 4.36477L18.2264 3.7564L18.4995 3.68321L20.7702 3.07488C22.0683 2.727 23.4237 3.03829 24.4236 3.91204L24.458 3.90277L26.2361 5.6607L29.7083 9.13771C30.6962 10.1644 31.1063 11.6979 30.7524 13.08L28.8285 20.2144L28.7941 20.2236C28.3649 21.4808 27.3475 22.4277 26.0499 22.7761L23.8393 23.3676L23.7787 23.3845L23.5668 23.4408L23.5062 23.4577L21.2955 24.0491L21.2354 24.0661L19.1111 24.6345L16.8399 25.2434L16.5673 25.3161L14.2966 25.925C12.998 26.2728 11.6426 25.9616 10.6438 25.0884L10.6361 25.0895L5.41042 19.9151C4.36843 18.8928 3.93591 17.2774 4.32694 15.8718L6.27273 8.7751C6.70142 7.51909 7.71933 6.5716 9.01743 6.22371L11.2887 5.61534L11.5612 5.54215Z" fill="#04DEC5"/>
<path fill-rule="evenodd" clip-rule="evenodd" d="M116.067 20.1375H117.183C117.528 20.1375 117.581 20.0835 117.581 19.7357V9.45911C117.581 9.05264 117.737 8.82028 118.131 8.66778C119.164 8.30819 120.293 8.18505 121.377 8.18505H122.303C122.647 8.18505 122.701 8.13097 122.701 7.78322V6.87645C122.701 6.52873 122.647 6.47461 122.303 6.47461H121.431C119.773 6.47461 118.091 6.68791 116.542 7.3082C115.828 7.59413 115.669 7.80845 115.669 8.58021V19.7357C115.669 20.0835 115.723 20.1375 116.067 20.1375Z" fill="white"/>
<path fill-rule="evenodd" clip-rule="evenodd" d="M125.232 20.1371H126.348C126.693 20.1371 126.747 20.083 126.747 19.7353V6.875C126.747 6.52725 126.693 6.47266 126.348 6.47266H125.232C124.887 6.47266 124.834 6.52725 124.834 6.875V19.7353C124.834 20.083 124.887 20.1371 125.232 20.1371Z" fill="white"/>
<path fill-rule="evenodd" clip-rule="evenodd" d="M155.428 20.1693C157.959 20.1693 160.624 19.2415 160.624 16.2554C160.624 13.189 158.234 12.7552 155.714 12.5228C154.145 12.3781 151.969 12.2894 151.969 10.1808C151.969 8.36573 153.735 8.01951 155.195 8.01951C156.733 8.01951 158.025 8.39611 158.698 9.87113C158.891 10.1509 158.901 10.1844 159.232 10.0468L160.11 9.68153C160.429 9.54861 160.471 9.43632 160.314 9.12047C159.33 7.03806 157.293 6.44922 155.144 6.44922C152.653 6.44922 150.206 7.36522 150.206 10.2328C150.206 13.3909 152.663 13.7933 155.195 14.0431C156.723 14.1941 158.887 14.3255 158.887 16.3595C158.887 18.2801 156.891 18.6248 155.376 18.6248C153.744 18.6248 152.272 18.2198 151.652 16.5619C151.525 16.2734 151.47 16.2132 151.17 16.3167L150.267 16.6289C149.979 16.732 149.923 16.8376 150.033 17.1266C150.937 19.4769 153.087 20.1693 155.428 20.1693Z" fill="white"/>
<path fill-rule="evenodd" clip-rule="evenodd" d="M144.633 8.36453L141.744 12.414L141.39 12.9173C141.252 13.1177 141.251 13.3701 141.39 13.5721L141.488 13.7138L142.787 15.5298L145.035 18.6679L145.905 19.8873L146.021 20.0465L146.901 21.2742L147.771 22.4942C148.107 22.9749 148.243 22.9919 148.816 22.9919H149.852C150.384 22.9919 150.54 22.9002 150.239 22.4195L148.448 19.944L148.372 19.8111L143.712 13.3686C143.645 13.2769 143.645 13.1574 143.711 13.0656L148.074 6.97865C148.363 6.54073 148.243 6.43359 147.741 6.43359H146.677C146.101 6.43359 145.996 6.45108 145.66 6.93125L144.66 8.3099C144.652 8.33721 144.65 8.34134 144.633 8.36453Z" fill="white"/>
<path d="M49.8233 28.4996C50.682 28.4996 51.153 28.0752 51.153 27.4545C51.153 26.6759 50.5186 26.5404 49.968 26.4796C49.5437 26.433 49.1614 26.3726 49.1614 26.0365C49.1614 25.7475 49.3852 25.6077 49.842 25.6077C50.2105 25.6077 50.3925 25.7524 50.5186 25.9993C50.5745 26.1067 50.6162 26.1253 50.7193 26.0787L50.9803 25.9668C51.0922 25.9154 51.1202 25.8594 51.0642 25.7524C50.8449 25.2902 50.5043 25.0479 49.842 25.0479C48.998 25.0479 48.5643 25.4772 48.5643 26.0694C48.5643 26.8859 49.259 26.9742 49.8282 27.035C50.2247 27.0767 50.5652 27.1469 50.5652 27.4688C50.5652 27.8044 50.3042 27.9536 49.8233 27.9536C49.4598 27.9536 49.2173 27.7951 49.0957 27.5198C49.0491 27.4079 49.0074 27.3849 48.8955 27.4222L48.6433 27.5154C48.527 27.5527 48.5035 27.6037 48.5407 27.7205C48.7321 28.2244 49.1006 28.4996 49.8233 28.4996ZM54.1878 28.4295H56.0955C56.2122 28.4295 56.254 28.3873 56.254 28.271V28.0424C56.254 27.9256 56.2122 27.8839 56.0955 27.8839H54.6122V27.0257H55.8202C55.9414 27.0257 55.9787 26.9835 55.9787 26.8667V26.6386C55.9787 26.5218 55.9414 26.4796 55.8202 26.4796H54.6122V25.6636H56.0445C56.1607 25.6636 56.2029 25.6214 56.2029 25.5051V25.2765C56.2029 25.1597 56.1607 25.118 56.0445 25.118H54.1878C54.0666 25.118 54.0293 25.1597 54.0293 25.2765V28.271C54.0293 28.3873 54.0666 28.4295 54.1878 28.4295ZM60.3294 28.4996C61.0198 28.4996 61.4255 28.2195 61.6027 27.7161C61.64 27.6037 61.612 27.5527 61.5001 27.5105L61.2484 27.4222C61.1365 27.3799 61.0899 27.4035 61.0477 27.5198C60.9403 27.8044 60.7215 27.9536 60.3294 27.9536C59.849 27.9536 59.5831 27.7161 59.5831 27.2867V26.2559C59.5831 25.827 59.849 25.5935 60.3294 25.5935C60.7215 25.5935 60.9403 25.7382 61.0428 26.0228C61.085 26.1396 61.1316 26.1533 61.2484 26.1209L61.5001 26.0321C61.612 25.9899 61.64 25.9389 61.5983 25.827C61.4255 25.3231 61.0148 25.0479 60.3294 25.0479C59.4712 25.0479 58.9953 25.5144 58.9953 26.2608V27.2823C58.9953 28.033 59.4756 28.4996 60.3294 28.4996ZM65.7434 28.4996C66.6015 28.4996 67.049 28.0237 67.049 27.2917V25.2765C67.049 25.1597 67.0073 25.118 66.8905 25.118H66.6202C66.5034 25.118 66.4617 25.1597 66.4617 25.2765V27.2961C66.4617 27.7111 66.2237 27.9536 65.7434 27.9536C65.2625 27.9536 65.025 27.7111 65.025 27.2961V25.2765C65.025 25.1597 64.9828 25.118 64.8661 25.118H64.6006C64.4789 25.118 64.4416 25.1597 64.4416 25.2765V27.2917C64.4416 28.0237 64.8852 28.4996 65.7434 28.4996ZM70.2192 28.4295H70.4852C70.6063 28.4295 70.6436 28.3873 70.6436 28.271V27.17H70.9891C71.3109 27.17 71.4228 27.2401 71.5484 27.4967L71.9355 28.2897C71.9915 28.4059 72.0572 28.4295 72.253 28.4295H72.5234C72.6401 28.4295 72.6539 28.3593 72.6028 28.271L72.0896 27.2867C72.0479 27.2029 72.0008 27.1376 71.9449 27.0861C72.3276 26.9556 72.5562 26.6292 72.5562 26.144C72.5562 25.5002 72.1549 25.118 71.5111 25.118H70.2192C70.098 25.118 70.0607 25.1597 70.0607 25.2765V28.271C70.0607 28.3873 70.098 28.4295 70.2192 28.4295ZM70.6436 26.6244V25.6636H71.4552C71.7677 25.6636 71.9449 25.8363 71.9449 26.144C71.9449 26.4565 71.7677 26.6244 71.4552 26.6244H70.6436ZM75.6469 28.4295H77.5546C77.6714 28.4295 77.7131 28.3873 77.7131 28.271V28.0424C77.7131 27.9256 77.6714 27.8839 77.5546 27.8839H76.0714V27.0257H77.2793C77.4006 27.0257 77.4378 26.9835 77.4378 26.8667V26.6386C77.4378 26.5218 77.4006 26.4796 77.2793 26.4796H76.0714V25.6636H77.5036C77.6199 25.6636 77.6621 25.6214 77.6621 25.5051V25.2765C77.6621 25.1597 77.6199 25.118 77.5036 25.118H75.6469C75.5257 25.118 75.4884 25.1597 75.4884 25.2765V28.271C75.4884 28.3873 75.5257 28.4295 75.6469 28.4295ZM106.273 28.4295H106.539C106.66 28.4295 106.697 28.3873 106.697 28.271V27.1233L107.835 25.2765C107.886 25.1877 107.872 25.118 107.756 25.118H107.453C107.266 25.118 107.215 25.1224 107.145 25.2578L106.412 26.5174L105.69 25.2578C105.62 25.1224 105.568 25.118 105.382 25.118H105.055C104.939 25.118 104.925 25.1877 104.976 25.2765L106.114 27.114V28.271C106.114 28.3873 106.151 28.4295 106.273 28.4295ZM110.781 28.4295H111.047C111.168 28.4295 111.206 28.3873 111.206 28.271V25.2765C111.206 25.1597 111.168 25.118 111.047 25.118H110.781C110.66 25.118 110.623 25.1597 110.623 25.2765V28.271C110.623 28.3873 110.66 28.4295 110.781 28.4295ZM114.404 28.4295H116.312C116.428 28.4295 116.47 28.3873 116.47 28.271V28.0424C116.47 27.9256 116.428 27.8839 116.312 27.8839H114.828V27.0257H116.036C116.158 27.0257 116.195 26.9835 116.195 26.8667V26.6386C116.195 26.5218 116.158 26.4796 116.036 26.4796H114.828V25.6636H116.261C116.377 25.6636 116.419 25.6214 116.419 25.5051V25.2765C116.419 25.1597 116.377 25.118 116.261 25.118H114.404C114.283 25.118 114.245 25.1597 114.245 25.2765V28.271C114.245 28.3873 114.283 28.4295 114.404 28.4295ZM119.496 28.4295H121.259C121.381 28.4295 121.418 28.3873 121.418 28.271V28.0424C121.418 27.9256 121.381 27.8839 121.259 27.8839H119.92V25.2765C119.92 25.1597 119.883 25.118 119.762 25.118H119.496C119.375 25.118 119.338 25.1597 119.338 25.2765V28.271C119.338 28.3873 119.375 28.4295 119.496 28.4295ZM124.35 28.4295H125.395C126.263 28.4295 126.747 27.9584 126.747 27.1979V26.3491C126.747 25.589 126.263 25.118 125.395 25.118H124.35C124.229 25.118 124.192 25.1597 124.192 25.2765V28.271C124.192 28.3873 124.229 28.4295 124.35 28.4295ZM124.775 27.8839V25.6636H125.4C125.894 25.6636 126.165 25.9016 126.165 26.3447V27.2029C126.165 27.6459 125.889 27.8839 125.4 27.8839H124.775ZM83.3611 28.4295H83.7389C83.8788 28.4295 83.9298 28.3829 83.9298 28.2381V27.142L85.0259 25.3089C85.0868 25.2019 85.0681 25.118 84.9283 25.118H84.5225C84.2983 25.118 84.2379 25.1224 84.1541 25.2858L83.5569 26.3726L82.974 25.2858C82.8901 25.1224 82.8292 25.118 82.6055 25.118H82.1718C82.0319 25.118 82.0133 25.2019 82.0736 25.3089L83.1698 27.1326V28.2381C83.1698 28.3829 83.2213 28.4295 83.3611 28.4295ZM88.649 28.4996C89.5307 28.4996 90.0248 28.0188 90.0248 27.2446V26.3025C90.0248 25.5282 89.5307 25.0479 88.649 25.0479C87.7628 25.0479 87.2683 25.5282 87.2683 26.3025V27.2446C87.2683 28.0188 87.7628 28.4996 88.649 28.4996ZM88.649 27.8093C88.2526 27.8093 88.0288 27.6223 88.0288 27.2588V26.2838C88.0288 25.9247 88.2526 25.7382 88.649 25.7382C89.041 25.7382 89.2692 25.9247 89.2692 26.2838V27.2588C89.2692 27.6223 89.041 27.8093 88.649 27.8093ZM93.9702 28.4996C94.8564 28.4996 95.3225 28.0144 95.3225 27.2632V25.3089C95.3225 25.1646 95.2715 25.118 95.1317 25.118H94.7538C94.6135 25.118 94.5625 25.1646 94.5625 25.3089V27.2823C94.5625 27.6179 94.3667 27.8093 93.9702 27.8093C93.5782 27.8093 93.3775 27.6179 93.3775 27.2823V25.3089C93.3775 25.1646 93.3309 25.118 93.1911 25.118H92.8133C92.6685 25.118 92.6219 25.1646 92.6219 25.3089V27.2632C92.6219 28.0144 93.0885 28.4996 93.9702 28.4996ZM98.1998 28.4295H98.5776C98.7174 28.4295 98.7684 28.3829 98.7684 28.2381V27.2539H98.9598C99.2301 27.2539 99.319 27.3147 99.4215 27.5291L99.767 28.2474C99.8366 28.3922 99.9205 28.4295 100.158 28.4295H100.532C100.672 28.4295 100.69 28.3407 100.63 28.2288L100.149 27.3103C100.117 27.2539 100.089 27.1979 100.056 27.1469C100.396 26.9884 100.592 26.6572 100.592 26.1906C100.592 25.5144 100.168 25.118 99.4961 25.118H98.1998C98.0594 25.118 98.0084 25.1646 98.0084 25.3089V28.2381C98.0084 28.3829 98.0594 28.4295 98.1998 28.4295ZM98.7684 26.5733V25.8084H99.4171C99.6688 25.8084 99.8042 25.9482 99.8042 26.1906C99.8042 26.433 99.6644 26.5733 99.4171 26.5733H98.7684Z" fill="#04DEC5"/>
<path fill-rule="evenodd" clip-rule="evenodd" d="M134.214 20.1508C136.781 20.1508 138.739 19.2708 139.616 16.7294C139.76 16.3826 139.663 16.3085 139.358 16.1812L138.467 15.9251C138.107 15.8103 138.035 15.8247 137.906 16.1776C137.357 17.9308 136.053 18.6124 134.291 18.6124C132.131 18.6124 130.662 17.5315 130.662 15.2621V11.3379C130.662 9.05558 132.123 8.01333 134.291 8.01333C136.058 8.01333 137.284 8.62847 137.878 10.3657C138.008 10.7021 138.08 10.7573 138.431 10.6269L139.308 10.3399C139.632 10.225 139.663 10.1091 139.559 9.77837C138.801 7.35905 136.771 6.47546 134.368 6.47546C131.071 6.47546 128.88 7.9618 128.88 11.442V15.1843C128.88 18.6001 130.933 20.1508 134.214 20.1508Z" fill="white"/>
<path d="M94.5557 20.2986H95.9938C96.6068 20.2986 96.82 20.0874 96.82 19.4806V1.59043C96.82 0.983675 96.6068 0.772461 95.9938 0.772461H94.5557C93.9422 0.772461 93.7295 0.983675 93.7295 1.59043V6.64024C93.01 6.50583 91.8912 6.28947 90.5587 6.28947C89.5543 6.28947 88.6833 6.43835 87.9473 6.72934L87.9442 6.72215C87.819 6.77006 87.698 6.82206 87.581 6.87822C86.4958 7.50195 85.6474 8.4734 85.1967 9.83579C85.1684 9.92076 85.1427 10.0058 85.1179 10.0913C85.0092 10.5621 84.9464 11.0746 84.9294 11.6267H84.9258V11.7864V14.2464V14.555V14.863C84.9258 16.3129 85.1787 17.6768 86.2063 18.7786C86.3242 18.9048 86.4329 19.0042 86.5684 19.1103C87.2817 19.6691 88.1147 20.0312 89.0042 20.1945C89.0433 20.2012 89.0763 20.2069 89.1155 20.2126C89.4219 20.2574 89.7315 20.2816 90.041 20.2919C90.0915 20.2939 90.142 20.2955 90.2049 20.296L93.7295 20.2965C93.8866 20.2965 94.0412 20.2847 94.1926 20.2625C94.294 20.2873 94.4141 20.2986 94.5557 20.2986ZM93.7295 9.50101V17.1411H90.2429C90.211 17.1406 90.1791 17.1396 90.1482 17.1386C89.9365 17.1314 89.7454 17.1159 89.5733 17.0907C89.0799 17.0191 88.7415 16.8702 88.5139 16.6261C88.1775 16.2655 88.0817 15.6974 88.0812 14.863C88.0812 14.8583 88.0812 14.8537 88.0812 14.8491V14.555V13.9667V11.6267H88.0745C88.0981 11.328 88.1502 11.056 88.2311 10.8114C88.4119 10.2643 88.7379 9.85281 89.2164 9.57722L89.2174 9.57981C89.7047 9.2929 90.3537 9.15024 91.1716 9.15024C92.2106 9.15024 93.1166 9.36656 93.7295 9.50101Z" fill="white"/>
<path fill-rule="evenodd" clip-rule="evenodd" d="M67.1383 11.0076C67.1383 9.59066 68.2972 8.43174 69.7137 8.43174H70.9452C72.3617 8.43174 73.5206 9.59066 73.5206 11.0076V11.9564H67.1383V11.0076ZM76.4452 11.1313C76.4452 8.29831 74.1274 5.98047 71.2945 5.98047H69.3969C66.564 5.98047 64.2461 8.29831 64.2461 11.1313V14.1264H75.4151C75.9817 14.1264 76.4452 13.6629 76.4452 13.0963V11.1313Z" fill="white"/>
<path fill-rule="evenodd" clip-rule="evenodd" d="M70.3165 17.4714C68.7414 17.4714 67.6422 16.9641 67.1987 15.4209H64.29L64.5213 16.226C65.3207 19.0084 67.5247 20.2987 70.3165 20.2987C73.1082 20.2987 75.3122 19.0084 76.1116 16.226L76.3429 15.4209H73.4343C72.9908 16.9641 71.8916 17.4714 70.3165 17.4714Z" fill="white"/>
<path d="M61.0834 6.06836H58.9262C58.6417 6.06836 58.4111 6.39027 58.4111 6.78736V19.581C58.4111 19.9781 58.6417 20.3 58.9262 20.3H61.0834C61.3678 20.3 61.5984 19.9781 61.5984 19.581V6.78736C61.5984 6.39027 61.3678 6.06836 61.0834 6.06836Z" fill="white"/>
<path d="M81.7629 0.772461H79.6069C79.3224 0.772461 79.0918 0.890475 79.0918 1.03605V20.0355C79.0918 20.1811 79.3224 20.2991 79.6069 20.2991H81.7629C82.0474 20.2991 82.2781 20.1811 82.2781 20.0355V1.03605C82.2781 0.890475 82.0474 0.772461 81.7629 0.772461Z" fill="white"/>
<path fill-rule="evenodd" clip-rule="evenodd" d="M49.1291 20.2996H50.6949C51.3228 20.2996 51.498 20.1188 51.498 19.4848V12.5902L58.2192 1.52195C58.4747 1.07403 58.4314 0.775074 57.8649 0.775074H56.0791C55.2029 0.775074 54.8094 0.701422 54.3809 1.54233L49.9527 9.26943L45.5802 1.54233C45.1517 0.701422 44.7581 0.775074 43.882 0.775074H41.9592C41.3931 0.775074 41.3488 1.07403 41.6043 1.52195L48.3261 12.5343V19.4848C48.3261 20.1188 48.5012 20.2996 49.1291 20.2996Z" fill="white"/>
<path d="M100.001 20.2967H107.905C111.303 20.2967 113.515 18.4625 113.515 15.1444C113.515 12.5819 112.355 10.9635 110.305 10.4237V10.3696C111.978 9.64127 112.841 8.23872 112.841 6.05376C112.841 2.87059 110.926 1.14453 107.635 1.14453H100.001C99.6232 1.14453 99.4883 1.27899 99.4883 1.68385V19.7574C99.4883 20.1618 99.6232 20.2967 100.001 20.2967ZM101.43 9.66859V2.95144H107.392C109.631 2.95144 110.845 4.08461 110.845 6.29638C110.845 8.53541 109.631 9.66859 107.392 9.66859H101.43ZM101.43 18.4893V11.4219H107.851C110.171 11.4219 111.465 12.6628 111.465 14.9559C111.465 17.2752 110.171 18.4893 107.851 18.4893H101.43Z" fill="white"/>
</svg>
